<?xml version="1.0" encoding="UTF-8" standalone="no"?>
<svg
   xmlns:dc="http://purl.org/dc/elements/1.1/"
   xmlns:cc="http://creativecommons.org/ns#"
   xmlns:rdf="http://www.w3.org/1999/02/22-rdf-syntax-ns#"
   xmlns:svg="http://www.w3.org/2000/svg"
   xmlns="http://www.w3.org/2000/svg"
   id="svg2"
   height="210"
   width="220"
   version="1.1">
  <defs
     id="defs4" />
  <metadata
     id="metadata7">
    <rdf:RDF>
      <cc:Work
         rdf:about="">
        <dc:format>image/svg+xml</dc:format>
        <dc:type
           rdf:resource="http://purl.org/dc/dcmitype/StillImage" />
        <dc:title></dc:title>
      </cc:Work>
    </rdf:RDF>
  </metadata>
  <text
     style="font-style:normal;font-variant:normal;font-weight:normal;font-stretch:normal;font-size:28px;line-height:125%;font-family:Arial;-inkscape-font-specification:Arial;letter-spacing:0px;word-spacing:0px;fill:#000000;fill-opacity:1;stroke:none"
     xml:space="preserve"
     id="text2989"
     y="19.524242"
     x="18.939337"><tspan
       id="tspan2991"
       y="19.524242"
       x="18.939337"><tspan
         style="font-size:22px"
         id="tspan3062">2e bond (e.g., CO)</tspan></tspan></text>
  <text
     style="font-style:normal;font-variant:normal;font-weight:normal;font-stretch:normal;font-size:28px;line-height:125%;font-family:Arial;-inkscape-font-specification:Arial;letter-spacing:0px;word-spacing:0px;fill:#000000;fill-opacity:1;stroke:none"
     xml:space="preserve"
     id="text3841"
     y="124.99536"
     x="18.80957"><tspan
       style="font-size:22px"
       id="tspan3843"
       y="124.99536"
       x="18.80957">3e bond (e.g., NO)</tspan></text>
  <g
     id="g174">
    <text
       style="font-style:normal;font-variant:normal;font-weight:normal;font-stretch:normal;font-size:28px;line-height:125%;font-family:Arial;-inkscape-font-specification:Arial;letter-spacing:0px;word-spacing:0px;fill:#000000;fill-opacity:1;stroke:none"
       xml:space="preserve"
       id="text3845"
       y="176.99733"
       x="17.529442"><tspan
         id="tspan3847"
         y="176.99733"
         x="17.529442">N</tspan></text>
    <text
       style="font-style:normal;font-variant:normal;font-weight:normal;font-stretch:normal;font-size:28px;line-height:125%;font-family:Arial;-inkscape-font-specification:Arial;letter-spacing:0px;word-spacing:0px;fill:#000000;fill-opacity:1;stroke:none"
       xml:space="preserve"
       id="text3849"
       y="177.00417"
       x="92.749908"><tspan
         id="tspan3851"
         y="177.00417"
         x="92.749908">O</tspan></text>
    <path
       style="fill:none;stroke:#000000;stroke-width:1;stroke-miterlimit:4;stroke-dasharray:none;stroke-dashoffset:1.5;stroke-opacity:1"
       id="path3861"
       d="m 121.53926,166.97585 a 33.082498,17.67767 0 1 1 -66.164997,0 33.082498,17.67767 0 1 1 66.164997,0 z" />
    <path
       style="fill:none;stroke:#000000;stroke-width:1;stroke-miterlimit:4;stroke-dasharray:none;stroke-dashoffset:1.5;stroke-opacity:1"
       id="path3863"
       d="m 73.557008,166.97585 a 33.082497,17.67767 0 1 1 -66.1649852,0 33.082497,17.67767 0 1 1 66.1649852,0 z" />
    <path
       style="fill:#ff0000;fill-opacity:1;stroke:none"
       id="path3859"
       d="m 87.377894,166.97585 a 4.285715,4.285715 0 1 1 -8.57142,0 4.285715,4.285715 0 1 1 8.57142,0 z" />
    <path
       style="fill:#ff0000;fill-opacity:1;stroke:none"
       id="path3865"
       d="m 50.124809,166.97585 a 4.285715,4.285715 0 1 1 -8.57143,0 4.285715,4.285715 0 1 1 8.57143,0 z" />
    <path
       style="fill:#ff0000;fill-opacity:1;stroke:none"
       id="path3867"
       d="m 68.690084,166.97585 a 4.2857175,4.2857175 0 1 1 -8.571435,0 4.2857175,4.2857175 0 1 1 8.571435,0 z" />
  </g>
  <g
     transform="matrix(1.3826962,0,0,1.3826962,115.88546,209.25775)"
     id="g164"
     style="fill:none;stroke:#ff0000;stroke-width:0.60000002;stroke-miterlimit:10">
    <path
       style="fill:none;stroke:#000000;stroke-width:0.80000001;stroke-linecap:round"
       id="path148"
       d="m -246.20763,122.14417 h 7.1 m -35.4,14.2 h 7.1 m -7.1,-42.5 h 7.1 m -35.5,14.2 h 7.1"
       transform="translate(312.20763,-145.44417)" />
    <path
       id="path150"
       d="m -267.40763,136.34417 21.2,-14.2 -21.2,-28.3 m -7.1,42.5 -21.3,-28.3 21.3,-14.2"
       style="fill:none;stroke:#000000;stroke-width:0.80000001;stroke-linecap:round;stroke-dasharray:3, 2"
       transform="translate(312.20763,-145.44417)" />
    <g
       id="g156">
      <path
         id="path152"
         d="m 39.7,-2 v -11.4 m 3,8.6 v -11.4" />
      <path
         id="path154"
         d="m 39.7,-16.2 c -0.2,1.2 -0.7,3.2 -1.7,4.6 1.3,-1.1 2.2,-1.1 3.5,0 C 40.4,-13 40,-15 39.7,-16.2 Z m 3,14.2 c 0.3,-1.1 0.7,-3.2 1.7,-4.6 -1.2,1.2 -2.1,1.2 -3.4,0 1,1.4 1.5,3.5 1.7,4.6 z"
         style="fill:#ff0000;stroke:none" />
    </g>
    <g
       id="g162"
       transform="translate(0,-42.995688)">
      <path
         d="M 39.7,-2 V -13.4"
         id="path158" />
      <path
         style="fill:#ff0000;stroke:none"
         d="m 39.7,-16.2 c -0.2,1.2 -0.7,3.2 -1.7,4.6 1.3,-1.1 2.2,-1.1 3.5,0 C 40.4,-13 40,-15 39.7,-16.2 Z"
         id="path160" />
    </g>
  </g>
  <g
     transform="translate(-1.188366,0.168641)"
     id="g210">
    <path
       d="m 208.33178,75.198759 h 9.81714 m -48.94745,19.634286 h 9.81715 m -9.81715,-58.764589 h 9.81715 M 129.9329,55.702742 h 9.81714"
       id="path168"
       style="fill:none;stroke:#000000;stroke-width:1.10615695;stroke-linecap:round;stroke-miterlimit:10" />
    <path
       style="fill:none;stroke:#000000;stroke-width:1.10615695;stroke-linecap:round;stroke-miterlimit:10;stroke-dasharray:4.1480886, 2.7653924"
       d="M 179.01862,94.833045 208.33178,75.198759 179.01862,36.068456 m -9.81715,58.764589 -29.45143,-39.130303 29.45143,-19.634286"
       id="path170" />
    <g
       style="fill:none;stroke:#ff0000;stroke-width:0.60000002;stroke-miterlimit:10"
       id="g176"
       transform="matrix(1.3826962,0,0,1.3826962,117.07383,107.41558)">
      <path
         d="m 39.7,-2 v -11.4 m 3,8.6 v -11.4"
         id="path172" />
      <path
         style="fill:#ff0000;stroke:none"
         d="m 39.7,-16.2 c -0.2,1.2 -0.7,3.2 -1.7,4.6 1.3,-1.1 2.2,-1.1 3.5,0 C 40.4,-13 40,-15 39.7,-16.2 Z m 3,14.2 c 0.3,-1.1 0.7,-3.2 1.7,-4.6 -1.2,1.2 -2.1,1.2 -3.4,0 1,1.4 1.5,3.5 1.7,4.6 z"
         id="path174" />
    </g>
  </g>
  <g
     id="g127">
    <text
       x="23.911707"
       y="70.758797"
       id="text102"
       xml:space="preserve"
       style="font-style:normal;font-variant:normal;font-weight:normal;font-stretch:normal;font-size:28px;line-height:125%;font-family:Arial;-inkscape-font-specification:Arial;letter-spacing:0px;word-spacing:0px;fill:#000000;fill-opacity:1;stroke:none"><tspan
         x="23.911707"
         y="70.758797"
         id="tspan100">C</tspan></text>
    <text
       x="85.541954"
       y="70.765633"
       id="text106"
       xml:space="preserve"
       style="font-style:normal;font-variant:normal;font-weight:normal;font-stretch:normal;font-size:28px;line-height:125%;font-family:Arial;-inkscape-font-specification:Arial;letter-spacing:0px;word-spacing:0px;fill:#000000;fill-opacity:1;stroke:none"><tspan
         x="85.541954"
         y="70.765633"
         id="tspan104">O</tspan></text>
    <path
       d="m 115.15699,60.737315 a 33.082498,17.67767 0 1 1 -66.164989,0 33.082498,17.67767 0 1 1 66.164989,0 z"
       id="path110"
       style="fill:none;stroke:#000000;stroke-width:1;stroke-miterlimit:4;stroke-dasharray:none;stroke-dashoffset:1.5;stroke-opacity:1" />
    <path
       d="m 79.939273,60.737315 a 33.082497,17.67767 0 1 1 -66.164985,0 33.082497,17.67767 0 1 1 66.164985,0 z"
       id="path112"
       style="fill:none;stroke:#000000;stroke-width:1;stroke-miterlimit:4;stroke-dasharray:none;stroke-dashoffset:1.5;stroke-opacity:1" />
    <path
       d="m 74.008312,60.737315 a 4.285715,4.285715 0 1 1 -8.57142,0 4.285715,4.285715 0 1 1 8.57142,0 z"
       id="path108"
       style="fill:#ff0000;fill-opacity:1;stroke:none" />
    <path
       d="m 63.494397,60.737315 a 4.2857175,4.2857175 0 1 1 -8.571435,0 4.2857175,4.2857175 0 1 1 8.571435,0 z"
       id="path116"
       style="fill:#ff0000;fill-opacity:1;stroke:none" />
  </g>
</svg>
