<?xml version="1.0" encoding="UTF-8" standalone="no"?>
<!-- Created with Inkscape (http://www.inkscape.org/) -->

<svg
   xmlns:dc="http://purl.org/dc/elements/1.1/"
   xmlns:cc="http://creativecommons.org/ns#"
   xmlns:rdf="http://www.w3.org/1999/02/22-rdf-syntax-ns#"
   xmlns:svg="http://www.w3.org/2000/svg"
   xmlns="http://www.w3.org/2000/svg"
   xmlns:sodipodi="http://sodipodi.sourceforge.net/DTD/sodipodi-0.dtd"
   xmlns:inkscape="http://www.inkscape.org/namespaces/inkscape"
   width="310.44443mm"
   height="189.37111mm"
   viewBox="0 0 1099.9999 670.99999"
   id="svg2"
   version="1.1"
   inkscape:version="0.91 r13725"
   sodipodi:docname="Hydrogen-bonding-in-water-2D.svg">
  <defs
     id="defs4" />
  <sodipodi:namedview
     id="base"
     pagecolor="#ffffff"
     bordercolor="#666666"
     borderopacity="1.0"
     inkscape:pageopacity="0.0"
     inkscape:pageshadow="2"
     inkscape:zoom="0.56554732"
     inkscape:cx="433.61688"
     inkscape:cy="469.36505"
     inkscape:document-units="px"
     inkscape:current-layer="layer1"
     showgrid="false"
     fit-margin-top="0"
     fit-margin-left="0"
     fit-margin-right="0"
     fit-margin-bottom="0"
     borderlayer="true"
     inkscape:window-width="1366"
     inkscape:window-height="715"
     inkscape:window-x="-8"
     inkscape:window-y="-8"
     inkscape:window-maximized="1" />
  <metadata
     id="metadata7">
    <rdf:RDF>
      <cc:Work
         rdf:about="">
        <dc:format>image/svg+xml</dc:format>
        <dc:type
           rdf:resource="http://purl.org/dc/dcmitype/StillImage" />
        <dc:title></dc:title>
      </cc:Work>
    </rdf:RDF>
  </metadata>
  <g
     inkscape:label="Layer 1"
     inkscape:groupmode="layer"
     id="layer1"
     transform="translate(122.88685,511.66479)">
    <g
       id="g3373"
       transform="translate(-49.509562,-795.68939)">
      <path
         style="fill:#fefefe"
         d="m -73.377289,619.5246 0,-335.5 549.999999,0 549.99999,0 0,335.5 0,335.5 -549.99999,0 -549.999999,0 0,-335.5 z"
         id="path3379"
         inkscape:connector-curvature="0" />
      <path
         style="fill:#f90d0d"
         d="m -15.387458,902.7746 c -4.934919,-3.35868 -7.215327,-7.04138 -7.739751,-12.49917 -0.781696,-8.13526 3.369183,-14.28706 12.24992,-18.15495 l 3,-1.30662 -4.619669,-4.14463 c -7.688509,-6.8979 -8.692415,-11.57206 -3.25116,-15.13731 5.759387,-3.77369 19.721124,-0.94413 21.027675,4.26158 0.607518,2.42054 -0.776555,4.18218 -3.312232,4.21579 -0.635463,0.008 -3.040539,-1.55969 -5.344614,-3.48469 -4.499219,-3.75899 -8.87495,-4.56053 -10.989223,-2.01299 -2.399257,2.89093 -0.238995,5.90221 8.48772,11.8314 9.806276,6.66268 13.301552,11.19769 14.149678,18.35879 1.661589,14.02952 -13.067272,25.28102 -23.658344,18.0728 z m 13.979512,-4.21737 c 4.693251,-4.99573 3.440079,-17.98102 -2.251299,-23.32779 -2.119,-1.9907 -2.397921,-2.01596 -5.526745,-0.50063 -4.223951,2.04572 -6.191299,5.91637 -6.191299,12.18103 0,8.82532 3.17809,14.11476 8.480674,14.11476 2.077928,0 3.969579,-0.85037 5.488669,-2.46737 z m 34.697327,-0.1993 c -0.36667,-0.36666 -0.66667,-4.64166 -0.66667,-9.5 l 0,-8.83333 -9,0 -9,0 0,-3 0,-3 9,0 9,0 0,-9.5 0,-9.5 2.96247,0 2.96248,0 0.28752,9.25 0.28753,9.25 9.81285,0.28697 9.81286,0.28697 -0.31286,2.71303 -0.31285,2.71303 -9.75,0.28621 -9.75,0.28621 0,9.46379 c 0,9.24778 -0.0533,9.46379 -2.33333,9.46379 -1.28334,0 -2.63334,-0.3 -3,-0.66667 z m -43.66667,-111.33333 0,-41 5.5,0 5.5,0 0,17 0,17 20.975821,0 20.975819,0 0.27418,-16.75 0.27418,-16.75 5.25,-0.30226 5.25,-0.30226 0,41.10452 0,41.10452 -5.25,-0.30226 -5.25,-0.30226 -0.27166,-19.27022 -0.27167,-19.27022 -20.728334,0.27022 -20.728336,0.27022 -0.271593,19.25 -0.271593,19.25 -5.478407,0 -5.478407,0 z m 69.78388,-50.25497 -2.71612,-2.24503 7.21612,-9.1231 c 3.96887,-5.0177 11.1483,-14.2427 15.95431,-20.5 4.806,-6.25729 14.63869,-19.0269 21.850419,-28.3769 7.21173,-9.35 15.83613,-20.6 19.16532,-25 3.3292,-4.4 6.37402,-8.36751 6.76627,-8.8167 0.39226,-0.44918 1.99329,0.2844 3.55785,1.63018 l 2.84465,2.44686 -5.59924,7.36983 c -3.07958,4.05341 -8.03275,10.51983 -11.00703,14.36983 -2.97429,3.85 -16.31986,21.2875 -29.656829,38.75 -13.33697,17.4625 -24.56641,31.74776 -24.95431,31.74503 -0.38791,-0.003 -1.92754,-1.01523 -3.42141,-2.25 z M 159.84089,721.36152 c -3.84978,-1.89748 -7.0122,-6.00706 -8.34943,-10.85011 -1.93699,-7.01518 3.19474,-16.6767 10.37665,-19.53617 1.79003,-0.7127 3.4371,-1.43816 3.66016,-1.61212 0.22306,-0.17397 -1.91444,-2.76937 -4.75,-5.76755 -5.97654,-6.31932 -6.66832,-9.80118 -2.68987,-13.53873 2.05006,-1.92594 3.49334,-2.30183 8.56235,-2.22995 7.92572,0.11238 12.47196,2.56925 12.47196,6.74007 0,4.28649 -2.82419,4.30092 -7.54215,0.0385 -5.66702,-5.11978 -12.95785,-4.78452 -12.95785,0.59589 0,1.67922 5.0203,6.02791 13.82231,11.97316 10.90642,7.36667 13.62048,20.72044 5.97992,29.42255 -5.63746,6.42071 -11.94355,8.03743 -18.58405,4.76446 z m 11.23702,-2.9581 c 6.30156,-2.41814 5.64717,-20.89934 -0.9334,-26.36073 -1.59391,-1.32282 -5.84582,0.47249 -8.76904,3.70262 -3.81126,4.21139 -3.03191,17.00014 1.29999,21.33204 1.95074,1.95074 5.36883,2.49018 8.40245,1.32607 z m 348.45791,2.34161 c -11.11983,-7.49365 -10.06062,-22.65823 2.03536,-29.1401 l 5.44847,-2.91966 -4.56814,-4.08034 c -5.40451,-4.82739 -7.20875,-7.93034 -6.42558,-11.05077 1.45076,-5.78026 12.4471,-7.68722 20.53493,-3.56111 3.54817,1.81014 4.13735,2.54534 3.87329,4.83322 -0.46738,4.04939 -3.71562,3.95577 -8.75231,-0.25227 -4.3808,-3.66005 -8.6293,-4.57923 -10.85913,-2.3494 -2.98565,2.98565 -0.172,6.74185 9.8,13.08292 6.70648,4.26457 9.42815,7.10419 11.45227,11.94861 6.36234,15.22721 -9.80189,32.07255 -22.53916,23.4889 z m 14.05623,-4.1878 c 4.69325,-4.99573 3.44008,-17.98102 -2.2513,-23.32779 -2.119,-1.9907 -2.39792,-2.01596 -5.52674,-0.50063 -4.22395,2.04572 -6.1913,5.91637 -6.1913,12.18103 0,8.82532 3.17809,14.11476 8.48067,14.11476 2.07793,0 3.96958,-0.85037 5.48867,-2.46737 z m -344.96934,-19.53263 0,-3 20,0 20,0 0,3 0,3 -20,0 -20,0 z m 638.58841,-10.26645 c -11.19959,-6.39506 -10.4248,-22.69486 1.38428,-29.12217 l 5.1409,-2.79803 -5.05679,-5.34681 c -5.92067,-6.26024 -6.55658,-9.70894 -2.49398,-13.52556 2.08814,-1.9617 3.6177,-2.40765 8.2581,-2.40765 7.57722,0 12.67908,2.82032 12.67908,7.00903 0,4.19023 -2.43297,4.19103 -7.4464,0.002 -4.64309,-3.87919 -9.81503,-4.74209 -12.07818,-2.01517 -2.20807,2.66057 0.44016,6.07131 9.23997,11.90046 9.34826,6.19245 12.80027,10.52922 13.52926,16.99686 0.74001,6.56531 -0.46145,11.18093 -3.94242,15.14553 -5.94111,6.76656 -12.25588,8.13413 -19.21382,4.16109 z m 11.86679,-2.35473 c 2.70162,-1.03671 4.5448,-5.9575 4.5448,-12.13338 0,-4.79385 -0.54637,-6.71541 -3.01724,-10.61157 -3.42293,-5.3974 -5.30747,-5.54082 -10.21827,-0.77765 -6.69041,6.48926 -3.28749,24.14378 4.65372,24.14378 1.33002,0 3.14666,-0.27953 4.03699,-0.62118 z m 17.5448,-21.37882 0,-3 20,0 20,0 0,3 0,3 -20,0 -20,0 z M 155.0298,644.05632 c -10.25124,-2.18853 -20.83759,-10.07476 -25.32077,-18.86252 -9.6405,-18.89694 -4.89016,-46.05095 9.9677,-56.97754 7.76407,-5.70976 14.04685,-7.43271 25.44598,-6.97817 8.36523,0.33357 10.83495,0.83009 15.10744,3.03724 10.07578,5.2051 15.71262,11.83128 19.4232,22.83219 2.96684,8.79589 2.47272,25.42909 -1.02242,34.41708 -3.24693,8.34972 -12.27913,17.34209 -20.50698,20.41655 -6.70303,2.50469 -16.89653,3.4383 -23.09415,2.11517 z m 21.92582,-12.38093 c 9.27537,-5.43573 13.66709,-14.60879 13.66709,-28.54668 0,-12.15073 -2.06155,-18.17103 -8.47863,-24.75995 -7.49888,-7.69969 -16.60547,-9.99319 -27.19382,-6.84879 -11.39475,3.38388 -18.1684,13.40614 -19.09462,28.25233 -0.99448,15.94033 4.6588,27.41799 16.22897,32.94913 7.05045,3.37048 18.12994,2.90449 24.87101,-1.04604 z m 592.7,10.74834 c -15.89456,-4.27158 -26.47286,-18.21425 -27.76911,-36.60093 -1.36869,-19.41401 6.58615,-35.1744 21.41593,-42.42993 7.27703,-3.56032 20.07525,-4.45354 28.54249,-1.99205 11.78452,3.42586 20.87751,12.49392 24.81852,24.75049 1.85441,5.76721 2.11633,8.45428 1.76172,18.07383 -0.36952,10.02425 -0.76392,12.04829 -3.49475,17.93472 -7.89297,17.01365 -26.45504,25.32157 -45.2748,20.26387 z m 19.19183,-9.44474 c 5.68906,-1.57999 11.93868,-6.90581 15.24317,-12.98995 2.61809,-4.82037 3.01427,-6.66574 3.36127,-15.65656 0.50243,-13.01783 -1.32696,-19.42075 -7.51529,-26.30365 -5.49384,-6.11047 -11.40017,-8.54847 -20.31389,-8.3851 -16.10536,0.29517 -25.7011,10.84838 -26.76536,29.43604 -0.96746,16.89701 5.48085,28.83906 18.153,33.61875 3.93895,1.4857 12.98529,1.62794 17.8371,0.28047 z m -272.51197,9.42504 c -0.39202,-0.39202 -0.71277,-18.86276 -0.71277,-41.0461 l 0,-40.33333 5.5,0 5.5,0 0,17 0,17 21,0 21,0 0,-17 0,-17 5.5,0 5.5,0 0,41.05226 0,41.05226 -5.25,-0.30226 -5.25,-0.30226 -0.27159,-19.25 -0.2716,-19.25 -20.95681,0 -20.95681,0 -0.2716,19.25 -0.27159,19.25 -4.53723,0.2961 c -2.49548,0.16286 -4.85798,-0.0246 -5.25,-0.41667 z M 213.62271,617.18359 c 0,-3.21255 -0.29526,-12.66255 -0.65613,-21 l -0.65613,-15.15899 4.15613,0 4.15613,0 0,21 0,21 -3.5,0 -3.5,0 z m 35,-15.03399 0,-20.875 3.125,-0.625 c 1.71875,-0.34375 3.51875,-0.625 4,-0.625 0.48125,0 0.875,9.675 0.875,21.5 l 0,21.5 -4,0 -4,0 z m 35,-0.625 0,-21.5 4,0 4,0 0,21.5 0,21.5 -4,0 -4,0 z m 36,0 0,-21.5 4,0 4,0 0,21.5 0,21.5 -4,0 -4,0 z m 35,0 0,-21.5 4,0 4,0 0,21.5 0,21.5 -4,0 -4,0 z m 35.53815,1.057 c -0.39965,-11.24365 -0.43267,-20.91865 -0.0734,-21.5 0.3593,-0.58135 2.20171,-1.057 4.09425,-1.057 l 3.44098,0 0,21.5 0,21.5 -3.36761,0 -3.3676,0 -0.72664,-20.443 z m 35.46185,-1.057 0,-21.5 4,0 4,0 0,21.5 0,21.5 -4,0 -4,0 z m 35.44674,20.22179 c -0.26978,-0.70302 -0.36815,-10.26552 -0.21862,-21.25 l 0.27188,-19.97179 3.75,-0.31037 3.75,-0.31036 0,21.56036 0,21.56037 -3.53138,0 c -1.94419,0 -3.75185,-0.5745 -4.02188,-1.27821 z m 35.55326,-20.22179 0,-21.5 3.34344,0 3.34344,0 0.65323,15.75 c 0.35927,8.6625 0.65473,18.3375 0.65656,21.5 l 0.003,5.75 -4,0 -4,0 0,-21.5 z m 94.18963,-0.25 0.31037,-3.75 69.5,0 69.5,0 0.31037,3.75 0.31036,3.75 -70.12073,0 -70.12073,0 z M 126.96691,559.71621 c -1.0421,-1.20538 -3.27399,-3.99161 -4.95974,-6.19161 -1.68576,-2.2 -7.72471,-10.075 -13.41989,-17.5 -5.69518,-7.425 -13.304559,-17.36233 -16.909719,-22.08295 -3.60517,-4.72061 -12.17985,-15.88836 -19.05485,-24.8172 -6.875,-8.92884 -12.9273,-16.84667 -13.44955,-17.59518 -0.67746,-0.97096 -0.24765,-1.94506 1.5,-3.39952 1.34725,-1.12124 2.73298,-2.05358 3.0794,-2.07188 0.34642,-0.0183 2.43867,2.32923 4.64943,5.21673 2.21077,2.8875 7.4911,9.75 11.73408,15.25 11.92376,15.4563 25.472519,33.13428 30.986639,40.43036 2.75,3.63869 7.95764,10.43042 11.57254,15.09272 3.6149,4.66231 7.77027,10.08506 9.23417,12.05056 l 2.66164,3.57364 -2.86471,2.11798 -2.86471,2.11797 z m 667.1558,-9.40468 c -1.1,-0.26458 -2.35804,-0.81792 -2.79565,-1.22965 -0.43761,-0.41172 2.84462,-14.20554 7.29384,-30.65293 4.44922,-16.44739 9.67189,-35.75435 11.60592,-42.90435 1.93404,-7.15 4.35945,-15.925 5.38979,-19.5 1.03034,-3.575 2.83603,-10.325 4.01264,-15 1.17661,-4.675 2.44398,-8.77898 2.81638,-9.11996 0.37239,-0.34097 2.09587,-0.02 3.82995,0.71324 l 3.15287,1.33319 -3.79306,14.28677 c -2.08619,7.85772 -8.62843,32.28676 -14.53832,54.28676 -5.90988,22 -11.21011,41.9125 -11.77828,44.25 -1.02695,4.22499 -1.36862,4.45756 -5.19608,3.53693 z M -10.377289,418.0246 l 0,-41 5.5,0 5.5,0 0,17 0,17 20.975821,0 20.975819,0 0.27418,-16.75 0.27418,-16.75 5.25,-0.30226 5.25,-0.30226 0,41.10452 0,41.10452 -5.25,-0.30226 -5.25,-0.30226 -0.27166,-19.27022 -0.27167,-19.27022 -20.728334,0.27022 -20.728336,0.27022 -0.271593,19.25 -0.271593,19.25 -5.478407,0 -5.478407,0 z m 95.3897,19.61427 c -7.32812,-3.29909 -11.49442,-11.79795 -9.46967,-19.31728 1.47048,-5.46095 4.21969,-8.70212 9.58386,-11.29887 2.47286,-1.19709 4.49611,-2.2971 4.49611,-2.44447 0,-0.14736 -2.25,-2.51794 -5,-5.26794 -4.17729,-4.17728 -5,-5.60182 -5,-8.65755 0,-3.05333 0.5369,-3.98491 3.25,-5.63912 4.29487,-2.61863 10.27367,-2.51981 15.78811,0.26096 4.653689,2.34672 6.495519,6.16264 3.799379,7.8716 -2.06748,1.31048 -2.565699,1.11874 -6.627059,-2.55046 -4.96757,-4.48789 -8.13454,-5.26293 -11.2377,-2.75014 -2.07794,1.68261 -2.24971,2.27569 -1.27722,4.41006 0.61797,1.35631 4.93026,4.97304 9.58286,8.03719 5.278,3.47603 9.335979,6.98972 10.790509,9.3432 3.1202,5.04859 3.78314,13.79079 1.42295,18.76452 -3.69496,7.78655 -13.409769,12.25116 -20.102129,9.2383 z m 11.68722,-5.53735 c 2.62,-2.61999 2.92308,-3.58471 2.92308,-9.30422 0,-5.36178 -0.47572,-7.13127 -2.97798,-11.07692 -3.29599,-5.19724 -3.78703,-5.38578 -8.15046,-3.12936 -6.89685,3.5665 -7.89385,17.52315 -1.72113,24.09371 2.95804,3.14868 6.39663,2.94666 9.92649,-0.58321 z m 34.923079,-9.57692 0,-9.5 -9,0 -9,0 0,-3 0,-3 9,0 9,0 0,-9 0,-9 3,0 3,0 0,9 0,9 9.5,0 9.5,0 0,3 0,3 -9.5,0 -9.5,0 0,9.5 0,9.5 -3,0 -3,0 z m 677.45678,-5.75202 c -0.26424,-0.68862 -0.36262,-19.02612 -0.21861,-40.75 l 0.26183,-39.49798 5.25,-0.30226 5.25,-0.30226 0,17.05226 0,17.05226 21.5,0 21.5,0 0,-17.05226 0,-17.05226 5.25,0.30226 5.25,0.30226 0,40.5 0,40.5 -5.22823,0.3015 -5.22822,0.30151 -0.27178,-19.0957 -0.27177,-19.0957 -21,0 -21,0 -0.27159,19.04419 -0.2716,19.0442 -5.00979,0 c -3.08966,0 -5.19393,-0.47987 -5.49024,-1.25202 z m 96.28374,-28.15262 c -5.00133,-1.81749 -6.26324,-2.97798 -8.69049,-7.992 -4.54439,-9.38746 -0.91508,-18.65484 9.06875,-23.15692 l 3.97234,-1.79128 -4.98151,-5.07758 c -6.57334,-6.7001 -7.27,-9.57103 -3.28862,-13.55241 2.5378,-2.5378 3.80894,-3.02517 7.8902,-3.02517 6.73213,0 13.78881,3.58238 13.78881,7 0,3.80175 -3.77561,3.84321 -8.05208,0.0884 -1.91653,-1.68274 -4.55943,-3.32929 -5.87312,-3.659 -3.28152,-0.82361 -6.5748,1.14563 -6.5748,3.93145 0,2.74141 2.17587,4.79196 11.67347,11.00118 5.81431,3.80121 7.66164,5.66942 9.75,9.86021 2.85623,5.73164 3.27313,11.17803 1.2294,16.05986 -1.43781,3.43449 -8.83022,10.70881 -10.90575,10.73153 -0.68592,0.008 -2.14712,0.22387 -3.24712,0.48079 -1.1,0.25692 -3.69176,-0.14766 -5.75948,-0.89908 z m 9.31487,-3.625 c 5.68738,-3.0438 6.50865,-15.49744 1.51921,-23.037 -3.24521,-4.90384 -5.67666,-5.0313 -10.1746,-0.53336 -3.13535,3.13535 -3.4,3.88251 -3.4,9.59887 0,11.21641 5.43462,17.51481 12.05539,13.97149 z m 36.94461,-11.47036 0,-9.5 -9.5,0 -9.5,0 0,-3 0,-3 9.5,0 9.5,0 0,-9.5 0,-9.5 3,0 3,0 0,9.5 0,9.5 9.5,0 9.5,0 0,3 0,3 -9.5,0 -9.5,0 0,9.5 0,9.5 -3,0 -3,0 z"
         id="path3377"
         inkscape:connector-curvature="0"
         sodipodi:nodetypes="ssscssscssssssssssscscccccccccccccccccccssccccccccccccccccccccccccccscsssscscssscsssscsssssssssssssssscsssssssssssssssccccccccccscsssscssssccsssssscccccccccsssssssssssssssssssssssssssssssscscccccccccccccccccccccscsscccccccsccssscccccccccccccccccccccccccccccccccscccccccccccccccccscccccscccccscccccccccccccccssssssssssssscccssssssssscsssscccccccccccccccccccccccccssssssssssssssssssssssccccccccccccccccccccccccccscccccccccccccccccccccsccsscsssssssssscsccsssssccccccccccccccccccccccccc" />
      <path
         style="fill:#080808"
         d="m -9.710622,827.35793 c -0.366667,-0.36666 -0.666667,-18.81666 -0.666667,-41 l 0,-40.33333 5.5,0 5.5,0 0,17.01989 0,17.01989 21.25,-0.26989 21.25,-0.26989 0.27418,-16.75 0.27418,-16.75 4.97582,0 4.97582,0 0,41 0,41 -4.97841,0 -4.9784,0 -0.2716,-19.25 -0.27159,-19.25 -21,0 -21,0 -0.271593,19.25 -0.271593,19.25 -4.81174,0 c -2.646457,0 -5.111741,-0.3 -5.478407,-0.66667 z m 69.117213,-90.5883 -2.71612,-2.24503 7.21612,-9.1231 c 3.96887,-5.0177 11.26612,-14.39886 16.21612,-20.847 4.95,-6.44815 16.875,-21.92636 26.499999,-34.39601 9.625,-12.46965 18.43027,-23.95015 19.56727,-25.5122 l 2.06727,-2.84011 2.91519,2.50754 2.91518,2.50753 -6.43242,8.35168 c -3.53784,4.59342 -19.41895,25.33917 -35.291359,46.10167 -15.87241,20.7625 -29.16992,37.74776 -29.55003,37.74503 -0.3801,-0.003 -1.91335,-1.01523 -3.40722,-2.25 z m 94.716119,-93.07 c -19.43231,-4.96281 -30.55261,-21.57142 -29.24264,-43.67503 1.14821,-19.37431 10.8026,-33.05448 26.56002,-37.63529 3.60087,-1.0468 8.20438,-1.44372 14.04484,-1.21096 15.3148,0.61034 25.82474,7.63524 32.49957,21.72287 3.01934,6.3725 3.13784,7.1158 3.12855,19.62338 -0.008,11.38139 -0.30883,13.74705 -2.41249,19 -3.30876,8.26215 -12.42694,17.37134 -20.35293,20.33286 -7.28839,2.72328 -17.68053,3.51355 -24.22492,1.84217 z m 23.21172,-12.28658 c 5.38807,-3.31584 10.70121,-10.49453 12.37906,-16.72557 1.7376,-6.45295 0.72498,-23.23812 -1.72985,-28.6741 -5.60853,-12.41952 -19.28648,-18.478 -32.82882,-14.54114 -4.49476,1.30666 -6.95553,2.84755 -10.9688,6.86847 -6.56698,6.5795 -8.08044,11.42908 -8.01542,25.68389 0.0622,13.62519 2.70335,19.65562 11.45211,26.14762 5.30653,3.93771 8.77097,4.84364 17.21172,4.50079 6.46479,-0.26258 8.48594,-0.78969 12.5,-3.25996 z m 592.32119,11.07501 c -11.32495,-3.17678 -20.63804,-11.76813 -25.16134,-23.21137 -3.26831,-8.26832 -3.31809,-24.95882 -0.10217,-34.25209 2.63471,-7.61372 7.49844,-14.11942 14.02476,-18.75947 6.77248,-4.81505 13.73927,-6.55529 24.23439,-6.05351 15.35051,0.73392 25.74677,7.69744 32.25467,21.60452 2.62956,5.61924 3.1246,7.99879 3.52174,16.9284 0.35362,7.95098 0.047,11.92374 -1.30631,16.9231 -2.13372,7.8826 -8.05382,17.08369 -13.35607,20.75815 -9.3812,6.50118 -23.56091,9.02132 -34.10967,6.06227 z m 21.46709,-10.3308 c 9.376,-4.27409 14.78844,-12.05073 16.42369,-23.59766 1.12446,-7.94011 -0.16659,-18.33959 -3.00458,-24.2021 -6.14583,-12.6956 -22.07123,-18.47445 -35.47651,-12.87336 -5.13648,2.14615 -11.00919,8.12418 -13.55573,13.79882 -2.03061,4.52495 -2.35163,6.81403 -2.34784,16.74164 0.004,10.01932 0.30462,12.10976 2.33614,16.23581 3.08307,6.26176 9.23098,12.27875 14.4263,14.11907 5.99012,2.12186 16.2933,2.01385 21.19853,-0.22222 z m -275.5,-30.63266 0,-40.5 5.5,0 5.5,0 0,17 0,17 21,0 21,0 0,-17 0,-17 5.5,0 5.5,0 0,40.5 0,40.5 -5.5,0 -5.5,0 0,-19 0,-19 -21,0 -21,0 0,19 0,19 -5.5,0 -5.5,0 0,-40.5 z m -302,15.65899 c 0,-3.21255 -0.29526,-12.66255 -0.65613,-21 l -0.65613,-15.15899 4.15613,0 4.15613,0 0,21 0,21 -3.5,0 -3.5,0 0,-5.84101 z m 35,-15.03399 0,-20.875 3.10271,-0.62054 c 1.70648,-0.3413 3.50648,-0.37099 4,-0.066 0.49351,0.305 0.89729,9.978 0.89729,21.49554 l 0,20.941 -4,0 -4,0 0,-20.875 z m 35,-0.625 0,-21.5 4,0 4,0 0,21.5 0,21.5 -4,0 -4,0 0,-21.5 z m 36,0 0,-21.5 4,0 4,0 0,21.5 0,21.5 -4,0 -4,0 0,-21.5 z m 35.23011,0.25 0.26989,-21.25 3.75,-0.31037 3.75,-0.31036 0,21.56036 0,21.56037 -4.01989,0 -4.01989,0 0.26989,-21.25 z m 35.33125,0.78341 c -0.39638,-11.25662 -0.43329,-20.93162 -0.082,-21.5 0.35127,-0.56837 2.18712,-1.03341 4.07966,-1.03341 l 3.44098,0 0,21.5 0,21.5 -3.35897,0 -3.35897,0 -0.7207,-20.46659 z m 35.43864,-1.03341 0,-21.5 4,0 4,0 0,21.5 0,21.5 -4,0 -4,0 0,-21.5 z m 36,0 0,-21.5 3.5,0 3.5,0 0,21.5 0,21.5 -3.5,0 -3.5,0 0,-21.5 z m 35,0 0,-21.5 3.34344,0 3.34344,0 0.65323,15.75 c 0.35927,8.6625 0.65473,18.3375 0.65656,21.5 l 0.003,5.75 -4,0 -4,0 0,-21.5 z m 94.18963,-0.25 0.31037,-3.75 69.5,0 69.5,0 0.31037,3.75 0.31036,3.75 -70.12073,0 -70.12073,0 0.31036,-3.75 z M 123.92465,555.81612 c -2.64107,-3.40535 -5.70194,-7.40548 -6.80194,-8.88916 -1.87512,-2.52918 -19.142329,-25.00975 -29.496639,-38.40236 -22.1599,-28.66235 -29.00336,-37.65953 -29.00336,-38.13107 0,-0.65974 4.25563,-4.28849 5.08467,-4.33566 0.32157,-0.0183 5.27157,6.09082 11,13.57582 5.72843,7.485 13.11533,17.08544 16.41533,21.33431 3.3,4.24887 10.049999,13.01813 14.999999,19.48724 4.95,6.46912 12.41692,16.16259 16.59315,21.54105 4.17623,5.37846 8.54433,11.11483 9.70688,12.74748 l 2.11374,2.96847 -2.90495,2.14772 -2.90495,2.14772 -4.80193,-6.19156 z m 670.19806,-5.50459 c -1.1,-0.26458 -2.34791,-0.80779 -2.77313,-1.20713 -0.65258,-0.61285 6.4594,-27.8942 24.78637,-95.0798 1.87538,-6.875 3.93051,-14.6375 4.56698,-17.25 1.19874,-4.92046 2.02288,-5.4217 6.26352,-3.80941 l 2.47393,0.94059 -3.79614,14.30941 c -2.08788,7.87017 -6.59828,24.65941 -10.02311,37.30941 -3.42484,12.65 -7.46317,27.725 -8.97407,33.5 -6.97907,26.67552 -8.56493,31.99217 -9.51044,31.884 -0.55765,-0.0638 -1.91391,-0.33248 -3.01391,-0.59707 z M -10.377289,418.0246 l 0,-41 5.5,0 5.5,0 0,17.01989 0,17.01989 21.25,-0.26989 21.25,-0.26989 0.27418,-16.75 0.27418,-16.75 4.97582,0 4.97582,0 0,41 0,41 -4.97841,0 -4.9784,0 -0.2716,-19.25 -0.27159,-19.25 -21,0 -21,0 -0.271593,19.25 -0.271593,19.25 -5.478407,0 -5.478407,0 0,-41 z m 819.456779,-1.25202 c -0.26424,-0.68862 -0.36262,-19.02612 -0.21861,-40.75 l 0.26183,-39.49798 5.25,-0.30226 5.25,-0.30226 0,17.05226 0,17.05226 21.5,0 21.5,0 0,-17.05226 0,-17.05226 5.25,0.30226 5.25,0.30226 0,40.5 0,40.5 -5.22823,0.3015 -5.22822,0.30151 -0.27178,-19.30151 -0.27177,-19.3015 -21,0 -21,0 -0.27159,19.25 -0.2716,19.25 -5.00979,0 c -3.08966,0 -5.19393,-0.47987 -5.49024,-1.25202 z"
         id="path3375"
         inkscape:connector-curvature="0" />
      <path
         style="fill:#f90d0d;fill-opacity:1"
         d="m 568.75332,707.3356 0,-9.5 -9.5,0 -9.5,0 0,-3 0,-3 9.5,0 9.5,0 0,-9.5 0,-9.5 3,0 3,0 0,9.5 0,9.5 9.5,0 9.5,0 0,3 0,3 -9.5,0 -9.5,0 0,9.5 0,9.5 -3,0 -3,0 z"
         id="path3377-0-2-4"
         inkscape:connector-curvature="0"
         sodipodi:nodetypes="ccccccccccccccccccccccccc" />
    </g>
  </g>
</svg>
